<svg xmlns="http://www.w3.org/2000/svg"><symbol id="stilts" viewBox="0 0 256 256"><path d="M128 5l106.5 61.5v123L128 251 21.5 189.5v-123L128 5z"/><path fill="#ff9500" d="M66.19 173.45a2 2 0 0 1 0-4h10.1v-12.77h-10.1a1.9 1.9 0 0 1-2-2v-39.81a1.9 1.9 0 0 1 2-2h13.33c1-28.69 22.42-44.45 48.48-44.45s47.46 15.76 48.47 44.45h13.33a1.91 1.91 0 0 1 2 2v39.79a1.91 1.91 0 0 1-2 2h-10.1v12.73h10.1a2 2 0 0 1 0 4zm2-56.56v35.75h119.59v-35.75zm12.12 39.79v12.73h12.95v-12.73zm3.23-43.83h88.87c-1-26.06-20.8-40.41-44.43-40.41s-43.41 14.35-44.42 40.41zm13.76 43.83v12.73h20.19v-12.73zm24.23 0v12.73h12.93v-12.73zm54.74-13.74H127a2 2 0 1 1 0-4h49.28a2 2 0 0 1 0 4zm-37.77 13.74v12.73h20.2v-12.73zm24.23 0v12.73h12.93v-12.73z"/></symbol><symbol id="dome" viewBox="0 0 256 256"><path d="M128 5l106.5 61.5v123L128 251 21.5 189.5v-123L128 5z"/><path fill="#ff9500" d="M69.63 173.45a1.91 1.91 0 0 1-2-2V147H41a2 2 0 0 1 0-4h15.1v-13.19a1.91 1.91 0 0 1 2-2H66a64 64 0 0 1 61.8-49.08c.21-.21.41-.21.81 0 29.89.2 54.74 21.21 61.4 49.08h7.88a1.91 1.91 0 0 1 2 2v13.13h15.15a2 2 0 0 1 0 4h-26.66v24.45a1.9 1.9 0 0 1-2 2zm-9.49-41.62v11.11h135.72v-11.11zM124 83c-25.86 1.61-47.46 20.4-53.73 44.84h21.58zm-52.35 64v22.43H126V147zM126 87l-29.09 40.8H126zm4-4.24v45h55.74A60 60 0 0 0 130 82.75zm0 64.24v22.43h9.08V147zm13.12 0v22.43h41.21V147z"/></symbol><symbol id="space" viewBox="0 0 256 256"><path d="M128 5l106.5 61.5v123L128 251 21.5 189.5v-123L128 5z"/><path fill="#ff9500" d="M67.81 177.89l-4.65-6.66a2.13 2.13 0 0 1 .21-2.43L80.13 149h-8.28a1.91 1.91 0 0 1-2-2v-14.56a1.91 1.91 0 0 1 2-2h11.71a56.57 56.57 0 0 1-2.22-15.35 47.77 47.77 0 0 1 95.53 0 49.44 49.44 0 0 1-2.22 15.35h11.72a1.91 1.91 0 0 1 2 2V147a1.91 1.91 0 0 1-2 2h-10.3l16.56 19.79a2.15 2.15 0 0 1 0 2.43l-4.63 6.67a2.14 2.14 0 0 1-2.62.61l-9.7-5.05H80.13l-9.69 5.05a2.21 2.21 0 0 1-2.63-.61zM98.51 149H85.18l-17.77 21 2.82 4 34.14-18zm-24.64-14.54V145h110.48v-10.5zm13.93-4h82.61a48.73 48.73 0 0 0 2.42-15.35 43.73 43.73 0 0 0-87.45 0c0 5.21.41 10.66 2.42 15.31zm19.39 28.89L88 169.41h27.46zM103.76 149l17 20.4h14.54l17-20.4zm45 10.3l-8.28 10.1H168zm22-10.3h-13.28l-6 7.06 34.33 18 2.83-3.83z"/></symbol></svg>
